# Created by Metasequoia

mtllib barrel-closed-03.mtl

v 0.000200 -0.001600 5.893900
v -4.167600 -0.001600 4.167700
v 4.167600 -0.001600 -4.167800
v 4.167800 -0.001600 4.167500
v 5.894000 -0.001600 -0.000200
v -0.000100 -0.001600 -5.894100
v -4.167800 -0.001600 -4.167600
v -5.894000 -0.001600 0.000100
v 0.000400 6.691400 7.493800
v -5.298700 6.691400 5.299200
v 0.000400 13.199400 5.896400
v -4.169100 13.199400 4.169600
v 0.000200 12.509600 4.715600
v -3.334300 12.509600 3.334600
v -3.417100 13.199400 3.417600
v 0.000400 13.199400 4.832900
v 5.299200 6.691400 5.298600
v 4.169600 13.199400 4.169100
v 3.334700 12.509600 3.334200
v 3.417600 13.199400 3.417100
v 7.493800 6.691400 -0.000400
v 5.896400 13.199400 -0.000400
v 4.715700 12.509600 -0.000300
v 4.832900 13.199400 -0.000400
v 5.298700 6.691400 -5.299200
v 4.169100 13.199400 -4.169700
v 3.334300 12.509600 -3.334800
v 3.417100 13.199400 -3.417600
v -0.000400 6.691400 -7.493800
v -0.000400 13.199400 -5.896400
v -0.000200 12.509600 -4.715800
v -0.000400 13.199400 -4.832900
v -5.299200 6.691400 -5.298700
v -4.169600 13.199400 -4.169100
v -3.334700 12.509600 -3.334400
v -3.417600 13.199400 -3.417100
v -7.493800 6.691400 0.000400
v -5.896400 13.199400 0.000300
v -4.715700 12.509600 0.000200
v -4.832900 13.199400 0.000300
# 40 vertices

vt 0.10394 0.68120
vt 0.03031 0.86044
vt 0.28234 0.75525
vt 0.20871 0.68120
vt 0.03031 0.75525
vt 0.20871 0.93450
vt 0.10394 0.93450
vt 0.28234 0.86044
vt 0.03378 0.51867
vt 0.24332 0.51867
vt 0.24332 0.64154
vt 0.03294 0.64154
vt 0.44824 0.51867
vt 0.44739 0.64154
vt 0.93174 0.80556
vt 0.93258 0.68270
vt 0.96203 0.68270
vt 0.96161 0.80556
vt 0.47853 0.51867
vt 0.47769 0.64154
vt 0.03378 0.35465
vt 0.24332 0.35465
vt 0.24332 0.47751
vt 0.03294 0.47751
vt 0.44824 0.35465
vt 0.44739 0.47751
vt 0.86689 0.80556
vt 0.86773 0.68270
vt 0.89719 0.68270
vt 0.89676 0.80556
vt 0.47853 0.35465
vt 0.47769 0.47751
vt 0.51823 0.51867
vt 0.72777 0.51867
vt 0.72777 0.64154
vt 0.51739 0.64154
vt 0.93269 0.51867
vt 0.93184 0.64154
vt 0.80204 0.80556
vt 0.80288 0.68270
vt 0.83234 0.68270
vt 0.83192 0.80556
vt 0.96298 0.51867
vt 0.96214 0.64154
vt 0.51823 0.35846
vt 0.72777 0.35846
vt 0.72777 0.48133
vt 0.51739 0.48133
vt 0.93269 0.35846
vt 0.93184 0.48133
vt 0.73719 0.80556
vt 0.73804 0.68270
vt 0.76749 0.68270
vt 0.76707 0.80556
vt 0.96298 0.35846
vt 0.96214 0.48133
vt 0.51823 0.19444
vt 0.72777 0.19444
vt 0.72777 0.31730
vt 0.51739 0.31730
vt 0.93269 0.19444
vt 0.93184 0.31730
vt 0.67235 0.80556
vt 0.67319 0.68270
vt 0.70264 0.68270
vt 0.70222 0.80556
vt 0.96298 0.19444
vt 0.96214 0.31730
vt 0.03378 0.19444
vt 0.24332 0.19444
vt 0.24332 0.31730
vt 0.03294 0.31730
vt 0.44824 0.19444
vt 0.44739 0.31730
vt 0.60750 0.80556
vt 0.60834 0.68270
vt 0.63779 0.68270
vt 0.63737 0.80556
vt 0.47853 0.19444
vt 0.47769 0.31730
vt 0.51823 0.03041
vt 0.72777 0.03041
vt 0.72777 0.15327
vt 0.51739 0.15327
vt 0.93269 0.03041
vt 0.93184 0.15327
vt 0.93174 0.96959
vt 0.93258 0.84673
vt 0.96203 0.84673
vt 0.96161 0.96959
vt 0.96298 0.03041
vt 0.96214 0.15327
vt 0.03378 0.03422
vt 0.24332 0.03422
vt 0.24332 0.15709
vt 0.03294 0.15709
vt 0.44824 0.03422
vt 0.44739 0.15709
vt 0.86689 0.96959
vt 0.86773 0.84673
vt 0.89719 0.84673
vt 0.89676 0.96959
vt 0.47853 0.03422
vt 0.47769 0.15709
vt 0.39385 0.68120
vt 0.32022 0.86044
vt 0.57225 0.75525
vt 0.49862 0.68120
vt 0.32022 0.75525
vt 0.49862 0.93450
vt 0.39385 0.93450
vt 0.57225 0.86044
# 112 texture vertices

vn 0.00000 -1.00000 0.00000
vn -0.68771 -0.23249 0.68775
vn -0.70707 0.00287 0.70714
vn 0.00005 0.00287 1.00000
vn 0.00004 -0.23249 0.97260
vn -0.68668 0.23838 0.68676
vn 0.00006 0.23838 0.97117
vn -0.00013 0.16762 -0.98585
vn 0.69703 0.16755 -0.69719
vn 0.69710 0.16755 -0.69712
vn 0.00000 0.16762 -0.98585
vn 0.00000 1.00000 0.00000
vn 0.70714 0.00287 0.70707
vn 0.68776 -0.23248 0.68771
vn 0.68676 0.23838 0.68668
vn -0.69715 0.16758 -0.69706
vn -0.69716 0.16758 -0.69706
vn 1.00000 0.00287 -0.00005
vn 0.97260 -0.23248 -0.00003
vn 0.97117 0.23838 -0.00006
vn -0.98588 0.16748 0.00010
vn -0.98588 0.16748 0.00003
vn 0.70707 0.00288 -0.70714
vn 0.68772 -0.23248 -0.68775
vn 0.68668 0.23838 -0.68677
vn -0.69708 0.16738 0.69718
vn -0.69708 0.16738 0.69718
vn -0.00005 0.00288 -1.00000
vn -0.00003 -0.23247 -0.97260
vn -0.00006 0.23838 -0.97117
vn 0.00013 0.16734 0.98590
vn -0.00000 0.16734 0.98590
vn -0.70714 0.00288 -0.70707
vn -0.68776 -0.23248 -0.68771
vn -0.68676 0.23838 -0.68668
vn 0.69720 0.16741 0.69705
vn 0.69714 0.16741 0.69712
vn 0.00000 1.00000 0.00000
vn -1.00000 0.00288 0.00005
vn -0.97260 -0.23248 0.00003
vn -0.97117 0.23838 0.00005
vn 0.98588 0.16748 -0.00009
vn 0.98588 0.16748 -0.00003
# 43 normal vertices

usemtl asset_mat
f 1/4/1 2/3/1 3/2/1 4/1/1
f 3/2/1 5/5/1 4/1/1
f 6/7/1 3/2/1 2/3/1 7/6/1
f 8/8/1 7/6/1 2/3/1
f 1/12/5 9/11/4 10/10/3 2/9/2
f 9/11/4 11/14/7 12/13/6 10/10/3
f 13/18/11 14/17/10 15/16/9 16/15/8
f 11/14/12 16/20/12 15/19/12 12/13/12
f 4/24/14 17/23/13 9/22/4 1/21/5
f 17/23/13 18/26/15 11/25/7 9/22/4
f 19/30/17 13/29/11 16/28/8 20/27/16
f 18/26/12 20/32/12 16/31/12 11/25/12
f 5/36/19 21/35/18 17/34/13 4/33/14
f 21/35/18 22/38/20 18/37/15 17/34/13
f 23/42/22 19/41/17 20/40/16 24/39/21
f 22/38/12 24/44/12 20/43/12 18/37/12
f 3/48/24 25/47/23 21/46/18 5/45/19
f 25/47/23 26/50/25 22/49/20 21/46/18
f 27/54/27 23/53/22 24/52/21 28/51/26
f 26/50/12 28/56/12 24/55/12 22/49/12
f 6/60/29 29/59/28 25/58/23 3/57/24
f 29/59/28 30/62/30 26/61/25 25/58/23
f 31/66/32 27/65/27 28/64/26 32/63/31
f 30/62/12 32/68/12 28/67/12 26/61/12
f 7/72/34 33/71/33 29/70/28 6/69/29
f 33/71/33 34/74/35 30/73/30 29/70/28
f 35/78/37 31/77/32 32/76/31 36/75/36
f 34/74/12 36/80/38 32/79/12 30/73/12
f 8/84/40 37/83/39 33/82/33 7/81/34
f 37/83/39 38/86/41 34/85/35 33/82/33
f 39/90/43 35/89/37 36/88/36 40/87/42
f 38/86/12 40/92/12 36/91/38 34/85/12
f 2/96/2 10/95/3 37/94/39 8/93/40
f 10/95/3 12/98/6 38/97/41 37/94/39
f 14/102/10 39/101/43 40/100/42 15/99/9
f 12/98/12 15/104/12 40/103/12 38/97/12
f 13/108/12 19/107/12 35/106/12 14/105/12
f 35/106/12 39/109/38 14/105/12
f 31/111/12 35/106/12 19/107/12 27/110/12
f 23/112/38 27/110/12 19/107/12
# 40 elements

