# Created by Metasequoia

mtllib crate-closed-03.mtl

v -5.999900 0.000000 -6.000100
v 6.000100 0.000000 -5.999900
v 5.999900 0.000000 6.000100
v -6.000100 0.000000 5.999900
v -6.000100 12.000000 5.999900
v 5.999900 12.000000 6.000100
v 6.000100 12.000000 -5.999900
v -5.999900 12.000000 -6.000100
# 8 vertices

vt 0.35538 0.31509
vt 0.35538 0.02446
vt 0.64462 0.02446
vt 0.64462 0.31509
vt 0.35538 0.64458
vt 0.35538 0.35395
vt 0.64462 0.35395
vt 0.64462 0.64458
vt 0.68129 0.31509
vt 0.68129 0.02446
vt 0.97052 0.02446
vt 0.97052 0.31509
vt 0.68129 0.64458
vt 0.68129 0.35395
vt 0.97052 0.35395
vt 0.97052 0.64458
vt 0.02948 0.31509
vt 0.02948 0.02446
vt 0.31871 0.02446
vt 0.31871 0.31509
vt 0.02948 0.64458
vt 0.02948 0.35395
vt 0.31871 0.35395
vt 0.31871 0.64458
# 24 texture vertices

vn 0.00000 -1.00000 0.00000
vn -0.00002 0.00000 1.00000
vn 1.00000 0.00000 0.00002
vn 0.00000 1.00000 0.00000
vn -1.00000 0.00000 -0.00002
vn 0.00002 0.00000 -1.00000
# 6 normal vertices

usemtl asset_mat
f 1/4/1 2/3/1 3/2/1 4/1/1
f 5/8/2 4/7/2 3/6/2 6/5/2
f 6/12/3 3/11/3 2/10/3 7/9/3
f 7/16/4 8/15/4 5/14/4 6/13/4
f 8/20/5 1/19/5 4/18/5 5/17/5
f 7/24/6 2/23/6 1/22/6 8/21/6
# 6 elements

